<?xml version="1.0" encoding="UTF-8" standalone="no"?>
<svg
   width="700pt"
   height="700pt"
   version="1.1"
   viewBox="0 0 700 700"
   id="svg165"
   sodipodi:docname="outfit.svg"
   inkscape:version="1.2.2 (732a01da63, 2022-12-09)"
   xmlns:inkscape="http://www.inkscape.org/namespaces/inkscape"
   xmlns:sodipodi="http://sodipodi.sourceforge.net/DTD/sodipodi-0.dtd"
   xmlns="http://www.w3.org/2000/svg"
   xmlns:svg="http://www.w3.org/2000/svg">
  <sodipodi:namedview
     id="namedview167"
     pagecolor="#ffffff"
     bordercolor="#000000"
     borderopacity="0.25"
     inkscape:showpageshadow="2"
     inkscape:pageopacity="0.0"
     inkscape:pagecheckerboard="0"
     inkscape:deskcolor="#d1d1d1"
     inkscape:document-units="pt"
     showgrid="false"
     inkscape:zoom="1.0114286"
     inkscape:cx="357.9096"
     inkscape:cy="429.09605"
     inkscape:window-width="2496"
     inkscape:window-height="1570"
     inkscape:window-x="-11"
     inkscape:window-y="-11"
     inkscape:window-maximized="1"
     inkscape:current-layer="svg165" />
  <defs
     id="defs59">
    <symbol
       id="s"
       overflow="visible">
      <path
         d="m3.8125-0.23438c-0.19922 0.10547-0.40625 0.18359-0.625 0.23438-0.21094 0.050781-0.42969 0.078125-0.65625 0.078125-0.6875 0-1.2344-0.19141-1.6406-0.57812-0.40625-0.38281-0.60938-0.90625-0.60938-1.5625 0-0.66406 0.20312-1.1914 0.60938-1.5781 0.40625-0.38281 0.95312-0.57812 1.6406-0.57812 0.22656 0 0.44531 0.027344 0.65625 0.078125 0.21875 0.054687 0.42578 0.13281 0.625 0.23438v0.84375c-0.19922-0.125-0.39844-0.21875-0.59375-0.28125-0.1875-0.070312-0.39062-0.10938-0.60938-0.10938-0.375 0-0.67188 0.125-0.89062 0.375-0.21875 0.24219-0.32812 0.57812-0.32812 1.0156 0 0.42969 0.10938 0.76562 0.32812 1.0156 0.21875 0.24219 0.51562 0.35938 0.89062 0.35938 0.21875 0 0.42188-0.03125 0.60938-0.09375 0.19531-0.070312 0.39453-0.17188 0.59375-0.29688z"
         id="path2" />
    </symbol>
    <symbol
       id="e"
       overflow="visible">
      <path
         d="m2.7812-2.2656c-0.085938-0.039063-0.16797-0.066406-0.25-0.078125-0.085938-0.019531-0.17188-0.03125-0.26562-0.03125-0.25 0-0.44922 0.085938-0.59375 0.25-0.13672 0.15625-0.20312 0.38672-0.20312 0.6875v1.4375h-0.98438v-3.1094h0.98438v0.51562c0.125-0.20703 0.26953-0.35938 0.4375-0.45312 0.16406-0.09375 0.36328-0.14062 0.59375-0.14062 0.039062 0 0.078125 0.007812 0.10938 0.015625 0.039063 0 0.097656 0.007813 0.17188 0.015625z"
         id="path5" />
    </symbol>
    <symbol
       id="a"
       overflow="visible">
      <path
         d="m3.5781-1.5625v0.28125h-2.3125c0.019531 0.23047 0.10156 0.40625 0.25 0.53125 0.14453 0.11719 0.34375 0.17188 0.59375 0.17188 0.21875 0 0.4375-0.03125 0.65625-0.09375s0.44141-0.15625 0.67188-0.28125v0.76562c-0.24219 0.085938-0.48047 0.14844-0.71875 0.1875-0.23047 0.050781-0.46094 0.078125-0.6875 0.078125-0.5625 0-1-0.14062-1.3125-0.42188-0.3125-0.28906-0.46875-0.69141-0.46875-1.2031 0-0.50781 0.14844-0.91016 0.45312-1.2031 0.30078-0.28906 0.72266-0.4375 1.2656-0.4375 0.48828 0 0.87891 0.15234 1.1719 0.45312 0.28906 0.29297 0.4375 0.68359 0.4375 1.1719zm-1.0156-0.32812c0-0.1875-0.058594-0.33594-0.17188-0.45312-0.10547-0.125-0.24609-0.1875-0.42188-0.1875-0.19922 0-0.35938 0.058594-0.48438 0.17188-0.11719 0.10547-0.1875 0.26172-0.21875 0.46875z"
         id="path8" />
    </symbol>
    <symbol
       id="l"
       overflow="visible">
      <path
         d="m1.875-1.4062c-0.21094 0-0.36719 0.039062-0.46875 0.10938-0.10547 0.074219-0.15625 0.17969-0.15625 0.3125 0 0.125 0.039062 0.22656 0.125 0.29688 0.082031 0.074219 0.19531 0.10938 0.34375 0.10938 0.1875 0 0.34375-0.066406 0.46875-0.20312 0.13281-0.13281 0.20312-0.30078 0.20312-0.5v-0.125zm1.5156-0.375v1.7812h-1v-0.46875c-0.13672 0.19922-0.28906 0.33984-0.45312 0.42188-0.16797 0.082031-0.37109 0.125-0.60938 0.125-0.32422 0-0.58594-0.09375-0.78125-0.28125-0.19922-0.1875-0.29688-0.42969-0.29688-0.73438 0-0.36328 0.125-0.62891 0.375-0.79688 0.25-0.16406 0.64062-0.25 1.1719-0.25h0.59375v-0.078125c0-0.16406-0.0625-0.28516-0.1875-0.35938-0.125-0.070313-0.32031-0.10938-0.57812-0.10938-0.21875 0-0.42188 0.027344-0.60938 0.078125-0.17969 0.042969-0.34375 0.10547-0.5 0.1875v-0.76562c0.20703-0.050781 0.42188-0.085938 0.64062-0.10938 0.21875-0.03125 0.42969-0.046875 0.64062-0.046875 0.5625 0 0.96875 0.11719 1.2188 0.34375 0.25 0.21875 0.375 0.57422 0.375 1.0625z"
         id="path11" />
    </symbol>
    <symbol
       id="d"
       overflow="visible">
      <path
         d="m1.5625-4v0.89062h1.0312v0.70312h-1.0312v1.3281c0 0.14844 0.023438 0.24609 0.078125 0.29688 0.0625 0.042969 0.17578 0.0625 0.34375 0.0625h0.51562v0.71875h-0.84375c-0.39844 0-0.67969-0.078125-0.84375-0.23438-0.16797-0.16406-0.25-0.44531-0.25-0.84375v-1.3281h-0.48438v-0.70312h0.48438v-0.89062z"
         id="path14" />
    </symbol>
    <symbol
       id="k"
       overflow="visible">
      <path
         d="m2.5938-2.6562v-1.6719h1v4.3281h-1v-0.45312c-0.13672 0.1875-0.28906 0.32422-0.45312 0.40625-0.16797 0.082031-0.35938 0.125-0.57812 0.125-0.375 0-0.6875-0.14844-0.9375-0.45312-0.25-0.30078-0.375-0.69141-0.375-1.1719 0-0.47656 0.125-0.86719 0.375-1.1719 0.25-0.3125 0.5625-0.46875 0.9375-0.46875 0.21875 0 0.41016 0.046875 0.57812 0.14062 0.16406 0.085937 0.31641 0.21484 0.45312 0.39062zm-0.65625 2.0156c0.20703 0 0.36719-0.078125 0.48438-0.23438 0.11328-0.15625 0.17188-0.37891 0.17188-0.67188 0-0.30078-0.058594-0.53125-0.17188-0.6875-0.11719-0.15625-0.27734-0.23438-0.48438-0.23438-0.21094 0-0.37109 0.078125-0.48438 0.23438-0.11719 0.15625-0.17188 0.38672-0.17188 0.6875 0 0.29297 0.054688 0.51562 0.17188 0.67188 0.11328 0.15625 0.27344 0.23438 0.48438 0.23438z"
         id="path17" />
    </symbol>
    <symbol
       id="g"
       overflow="visible">
      <path
         d="m2.1406-0.64062c0.20703 0 0.36328-0.078125 0.46875-0.23438 0.11328-0.15625 0.17188-0.37891 0.17188-0.67188 0-0.30078-0.058594-0.53125-0.17188-0.6875-0.10547-0.15625-0.26172-0.23438-0.46875-0.23438-0.21875 0-0.38672 0.078125-0.5 0.23438-0.11719 0.15625-0.17188 0.38672-0.17188 0.6875 0 0.29297 0.054688 0.51562 0.17188 0.67188 0.11328 0.15625 0.28125 0.23438 0.5 0.23438zm-0.67188-2.0156c0.13281-0.17578 0.28516-0.30469 0.45312-0.39062 0.16406-0.09375 0.35938-0.14062 0.57812-0.14062 0.38281 0 0.69531 0.15625 0.9375 0.46875 0.25 0.30469 0.375 0.69531 0.375 1.1719 0 0.48047-0.125 0.87109-0.375 1.1719-0.24219 0.30469-0.55469 0.45312-0.9375 0.45312-0.21875 0-0.41406-0.042969-0.57812-0.125-0.16797-0.082031-0.32031-0.21875-0.45312-0.40625v0.45312h-0.98438v-4.3281h0.98438z"
         id="path20" />
    </symbol>
    <symbol
       id="f"
       overflow="visible">
      <path
         d="m0.0625-3.1094h1l0.84375 2.1094 0.70312-2.1094h1l-1.3125 3.4062c-0.13672 0.34375-0.29297 0.58203-0.46875 0.71875-0.16797 0.14453-0.39844 0.21875-0.6875 0.21875h-0.57812v-0.65625h0.3125c0.17578 0 0.30078-0.03125 0.375-0.09375 0.070312-0.054687 0.12891-0.14844 0.17188-0.28125l0.03125-0.078125z"
         id="path23" />
    </symbol>
    <symbol
       id="j"
       overflow="visible">
      <path
         d="m0.51562-4.1406h1.0781v4.1406h-1.0781z"
         id="path26" />
    </symbol>
    <symbol
       id="i"
       overflow="visible">
      <path
         d="m2.9844-3.0156v0.8125c-0.13672-0.09375-0.27344-0.16016-0.40625-0.20312-0.13672-0.039062-0.27734-0.0625-0.42188-0.0625-0.27344 0-0.48438 0.085938-0.64062 0.25-0.15625 0.15625-0.23438 0.38281-0.23438 0.67188 0 0.29297 0.078125 0.52344 0.23438 0.6875 0.15625 0.15625 0.36719 0.23438 0.64062 0.23438 0.15625 0 0.30078-0.019531 0.4375-0.0625 0.14453-0.050781 0.27344-0.125 0.39062-0.21875v0.8125c-0.15625 0.0625-0.3125 0.10156-0.46875 0.125-0.15625 0.03125-0.32031 0.046875-0.48438 0.046875-0.5625 0-1-0.14062-1.3125-0.42188-0.3125-0.28906-0.46875-0.69141-0.46875-1.2031 0-0.51953 0.15625-0.92188 0.46875-1.2031 0.3125-0.28906 0.75-0.4375 1.3125-0.4375 0.16406 0 0.32812 0.015625 0.48438 0.046875s0.3125 0.074219 0.46875 0.125z"
         id="path29" />
    </symbol>
    <symbol
       id="c"
       overflow="visible">
      <path
         d="m1.9531-2.4688c-0.21875 0-0.38672 0.078125-0.5 0.23438-0.11719 0.15625-0.17188 0.38672-0.17188 0.6875 0 0.29297 0.054688 0.52344 0.17188 0.6875 0.11328 0.15625 0.28125 0.23438 0.5 0.23438s0.38281-0.078125 0.5-0.23438c0.11328-0.16406 0.17188-0.39453 0.17188-0.6875 0-0.30078-0.058594-0.53125-0.17188-0.6875-0.11719-0.15625-0.28125-0.23438-0.5-0.23438zm0-0.71875c0.53906 0 0.95703 0.14844 1.25 0.4375 0.30078 0.29297 0.45312 0.69531 0.45312 1.2031 0 0.51172-0.15234 0.91406-0.45312 1.2031-0.29297 0.28125-0.71094 0.42188-1.25 0.42188-0.53125 0-0.94922-0.14062-1.25-0.42188-0.30469-0.28906-0.45312-0.69141-0.45312-1.2031 0-0.50781 0.14844-0.91016 0.45312-1.2031 0.30078-0.28906 0.71875-0.4375 1.25-0.4375z"
         id="path32" />
    </symbol>
    <symbol
       id="b"
       overflow="visible">
      <path
         d="m3.6094-1.8906v1.8906h-1v-1.4531c0-0.26953-0.011719-0.45312-0.03125-0.54688-0.011719-0.10156-0.027344-0.17969-0.046875-0.23438-0.042969-0.0625-0.10156-0.10938-0.17188-0.14062-0.0625-0.039062-0.13672-0.0625-0.21875-0.0625-0.21094 0-0.375 0.085938-0.5 0.25-0.11719 0.15625-0.17188 0.375-0.17188 0.65625v1.5312h-0.98438v-3.1094h0.98438v0.45312c0.15625-0.17578 0.31641-0.30469 0.48438-0.39062 0.16406-0.09375 0.34766-0.14062 0.54688-0.14062 0.36328 0 0.64062 0.10938 0.82812 0.32812s0.28125 0.54297 0.28125 0.96875z"
         id="path35" />
    </symbol>
    <symbol
       id="h"
       overflow="visible">
      <path
         d="m0.4375-1.2031v-1.9062h1v0.3125 0.64062 0.5c0 0.25 0.003906 0.43359 0.015625 0.54688 0.019531 0.10547 0.046875 0.18359 0.078125 0.23438 0.03125 0.0625 0.078125 0.11719 0.14062 0.15625 0.070313 0.03125 0.14844 0.046875 0.23438 0.046875 0.20703 0 0.36719-0.078125 0.48438-0.23438 0.125-0.16406 0.1875-0.39062 0.1875-0.67188v-1.5312h1v3.1094h-1v-0.45312c-0.14844 0.1875-0.30859 0.32422-0.48438 0.40625-0.16797 0.082031-0.35156 0.125-0.54688 0.125-0.35547 0-0.63281-0.10938-0.82812-0.32812-0.1875-0.21875-0.28125-0.53516-0.28125-0.95312z"
         id="path38" />
    </symbol>
    <symbol
       id="r"
       overflow="visible">
      <path
         d="m2.5312-4.3281v0.65625h-0.5625c-0.13672 0-0.23438 0.027344-0.29688 0.078125-0.054687 0.054688-0.078125 0.14062-0.078125 0.26562v0.21875h0.85938v0.70312h-0.85938v2.4062h-0.98438v-2.4062h-0.5v-0.70312h0.5v-0.21875c0-0.33203 0.09375-0.58203 0.28125-0.75 0.1875-0.16406 0.47656-0.25 0.875-0.25z"
         id="path41" />
    </symbol>
    <symbol
       id="q"
       overflow="visible">
      <path
         d="m3.3594-2.5938c0.125-0.1875 0.26953-0.33203 0.4375-0.4375 0.17578-0.10156 0.36719-0.15625 0.57812-0.15625 0.36328 0 0.63281 0.10938 0.8125 0.32812 0.1875 0.21875 0.28125 0.54297 0.28125 0.96875v1.8906h-0.98438v-1.625-0.0625-0.125c0-0.21875-0.039063-0.375-0.10938-0.46875-0.0625-0.10156-0.16406-0.15625-0.29688-0.15625-0.19922 0-0.35156 0.078125-0.45312 0.23438-0.09375 0.15625-0.14844 0.38281-0.15625 0.67188v1.5312h-1v-1.625c0-0.34375-0.03125-0.5625-0.09375-0.65625-0.054688-0.10156-0.15625-0.15625-0.3125-0.15625-0.1875 0-0.33594 0.078125-0.4375 0.23438-0.10547 0.15625-0.15625 0.38281-0.15625 0.67188v1.5312h-1v-3.1094h1v0.45312c0.125-0.17578 0.26562-0.30469 0.42188-0.39062 0.15625-0.09375 0.33203-0.14062 0.53125-0.14062 0.20703 0 0.39453 0.054688 0.5625 0.15625 0.16406 0.10547 0.28906 0.25 0.375 0.4375z"
         id="path44" />
    </symbol>
    <symbol
       id="p"
       overflow="visible">
      <path
         d="m3.6094-1.8906v1.8906h-1v-1.4375c0-0.28125-0.011719-0.46875-0.03125-0.5625-0.011719-0.10156-0.027344-0.17969-0.046875-0.23438-0.042969-0.0625-0.10156-0.10938-0.17188-0.14062-0.0625-0.039062-0.13672-0.0625-0.21875-0.0625-0.21094 0-0.375 0.085938-0.5 0.25-0.11719 0.15625-0.17188 0.375-0.17188 0.65625v1.5312h-0.98438v-4.3281h0.98438v1.6719c0.15625-0.17578 0.31641-0.30469 0.48438-0.39062 0.16406-0.09375 0.34766-0.14062 0.54688-0.14062 0.36328 0 0.64062 0.10938 0.82812 0.32812s0.28125 0.54297 0.28125 0.96875z"
         id="path47" />
    </symbol>
    <symbol
       id="o"
       overflow="visible">
      <path
         d="m0.51562-4.1406h1.2031l1.5 2.8438v-2.8438h1.0156v4.1406h-1.1875l-1.5156-2.8438v2.8438h-1.0156z"
         id="path50" />
    </symbol>
    <symbol
       id="n"
       overflow="visible">
      <path
         d="m0.51562-4.1406h1.7812c0.53125 0 0.9375 0.12109 1.2188 0.35938 0.28125 0.23047 0.42188 0.55859 0.42188 0.98438 0 0.4375-0.14062 0.77734-0.42188 1.0156-0.28125 0.23047-0.6875 0.34375-1.2188 0.34375h-0.70312v1.4375h-1.0781zm1.0781 0.76562v1.1562h0.59375c0.20703 0 0.36328-0.046875 0.46875-0.14062 0.11328-0.10156 0.17188-0.25 0.17188-0.4375s-0.058594-0.32812-0.17188-0.42188c-0.10547-0.10156-0.26172-0.15625-0.46875-0.15625z"
         id="path53" />
    </symbol>
    <symbol
       id="m"
       overflow="visible">
      <path
         d="m0.48438-3.1094h0.98438v3.0469c0 0.41406-0.10156 0.73438-0.29688 0.95312-0.19922 0.22656-0.49219 0.34375-0.875 0.34375h-0.48438v-0.65625h0.17188c0.1875 0 0.31641-0.046875 0.39062-0.14062 0.070312-0.085938 0.10938-0.25 0.10938-0.5zm0-1.2188h0.98438v0.8125h-0.98438z"
         id="path56" />
    </symbol>
  </defs>
  <g
     id="g163"
     transform="matrix(0.98230964,0,0,0.98230964,-125.5872,-54.983577)">
    <path
       d="m 470.83702,569.44125 h -63.55508 c -5.96152,0 -10.81019,-4.84851 -10.81019,-10.81019 0,-5.96168 4.84851,-10.81019 10.81019,-10.81019 h 63.55508 c 5.96152,0 10.81019,4.84851 10.81019,10.81019 0,5.96168 -4.84851,10.81019 -10.81019,10.81019 z"
       fill-rule="evenodd"
       id="path61"
       style="stroke-width:1.63751" />
    <path
       d="m 338.31326,461.33278 c -5.96152,0 -10.81019,-4.8485 -10.81019,-10.81019 V 315.21015 l -28.33058,28.51562 c -2.05327,2.05327 -4.65675,3.16629 -7.6439,3.16629 -2.98076,0 -5.59062,-1.11938 -7.64389,-3.16629 l -52.00408,-52.00406 c -4.10016,-4.10017 -4.10016,-10.99556 0,-15.0959 l 82.9432,-82.9432 c 3.54374,-3.54373 8.0148,-6.15343 12.86347,-7.45836 l 69.70884,-18.07648 c 0.93388,-0.1855 1.86135,-0.371 2.60986,-0.371 5.96152,0 10.81019,4.84851 10.81019,10.81019 0,2.60987 0.1855,5.21957 0.74839,7.82927 3.72911,22.3684 22.92515,38.58303 45.66527,38.58303 12.30049,0 24.04521,-4.84851 32.80097,-13.60543 6.8954,-6.89539 11.36663,-15.46677 12.86348,-24.97858 0.37099,-2.60987 0.74839,-5.21957 0.74839,-7.82927 0,-3.35182 1.49039,-6.5245 4.10016,-8.57138 2.60986,-2.05328 5.96153,-2.79523 9.31973,-1.86136 l 69.70884,18.07648 c 4.84851,1.3049 9.31972,3.7291 12.86346,7.45837 l 82.9432,82.9432 c 4.10017,4.10016 4.10017,10.99556 0,15.09588 l -52.38725,51.99752 c -2.05327,2.05327 -4.65675,3.16629 -7.6439,3.16629 -2.79522,0 -5.59062,-1.11938 -7.64389,-3.16629 l -28.33058,-28.33057 v 110.34039 c 0,5.96152 -4.84851,10.81019 -10.81019,10.81019 -5.96169,0 -10.8102,-4.8485 -10.8102,-10.81019 V 289.48869 c 0,-4.28569 2.60987,-8.20032 6.71003,-9.87615 4.10017,-1.67583 8.57139,-0.74839 11.74407,2.23881 l 39.13979,39.13977 36.9013,-36.9013 -75.29275,-75.30585 c -0.93389,-0.93389 -1.86136,-1.4904 -3.16629,-1.86136 l -57.59454,-14.91035 c -2.60986,13.04899 -8.94866,24.787 -18.45474,34.29112 -12.86346,12.86346 -29.82071,19.7582 -47.90375,19.7582 -16.02975,0 -31.68255,-5.77599 -43.98844,-16.21513 -11.55854,-9.87615 -19.38159,-23.29686 -22.3684,-38.02136 l -57.59453,14.91036 c -1.11939,0.371 -2.23881,0.93389 -3.16629,1.86136 l -75.10772,75.48597 36.90131,36.90131 39.13979,-39.13978 c 2.98076,-2.98076 7.6439,-3.91464 11.74406,-2.23881 4.10016,1.67583 6.71002,5.59063 6.71002,9.87615 v 161.22441 c -0.18549,5.78238 -5.02764,10.62466 -10.99555,10.62466 z"
       fill-rule="evenodd"
       id="path63"
       style="stroke-width:1.63751" />
    <path
       d="m 513.33042,198.92168 c -1.30489,0 -2.79523,-0.1855 -4.10017,-0.7484 l -53.67924,-21.8051 -50.32071,21.62006 c -5.40509,2.42434 -11.74406,-0.18549 -14.16823,-5.59062 -0.5565,-1.30488 -0.93389,-2.79524 -0.93389,-4.2857 0,-4.10017 2.42433,-8.20033 6.5245,-9.87615 l 48.08878,-20.68668 v -8.01479 c 0,-11.36663 6.5245,-21.62006 16.77139,-26.65377 4.8485,-2.42434 8.01479,-7.45837 8.01479,-12.86347 -0.1855,-7.45837 -6.33896,-13.790949 -13.79095,-13.976479 -5.21957,-0.185497 -9.87616,2.609865 -12.48602,7.080929 -2.98076,5.03403 -9.50526,6.89539 -14.72482,3.91463 -5.03404,-2.98076 -6.8954,-9.50526 -3.91464,-14.724827 6.5245,-11.181087 18.63979,-17.891442 31.68256,-17.519728 9.1342,0.185497 17.89145,3.914634 24.41528,10.624662 6.52451,6.524498 10.25361,15.281253 10.25361,24.600333 0.1855,13.79094 -7.6439,26.65376 -20.12992,32.61593 -2.98076,1.4904 -4.65675,4.2857 -4.65675,7.26646 v 7.82927 l 51.25573,20.68667 c 5.40509,2.23881 8.20032,8.57139 5.96152,13.97648 -1.86136,3.92102 -5.776,6.53088 -10.06169,6.53088 z"
       fill-rule="evenodd"
       id="path65"
       style="stroke-width:1.63751" />
    <path
       d="M 376.15614,542.79895 H 182.88073 c -23.29687,0 -42.30673,-19.00986 -42.30673,-42.30673 v -18.26807 c 0,-23.29687 19.00986,-42.30673 42.30673,-42.30673 h 193.45553 c 23.29687,0 42.30673,19.00986 42.30673,42.30673 v 18.26807 c -0.17911,23.29687 -19.00332,42.30673 -42.49176,42.30673 z M 182.88073,461.34589 c -11.55853,0 -20.87171,9.31972 -20.87171,20.8717 v 18.26808 c 0,11.55853 9.31973,20.87171 20.87171,20.87171 h 193.45553 c 11.55854,0 20.87172,-9.31972 20.87172,-20.87171 v -18.26808 c 0,-11.55852 -9.31974,-20.8717 -20.87172,-20.8717 z"
       fill-rule="evenodd"
       id="path67"
       style="stroke-width:1.63751" />
    <path
       d="M 376.15614,624.42887 H 182.88073 c -23.29687,0 -42.30673,-19.00987 -42.30673,-42.30673 v -18.45476 c 0,-23.29686 19.00986,-42.30672 42.30673,-42.30672 h 193.45553 c 23.29687,0 42.30673,19.00986 42.30673,42.30672 v 18.26808 c -0.17911,23.48191 -19.00332,42.49177 -42.49176,42.49177 z m -193.27541,-81.6332 c -11.55853,0 -20.87171,9.31974 -20.87171,20.87171 v 18.26808 c 0,11.55854 9.31973,20.87171 20.87171,20.87171 h 193.45553 c 11.55854,0 20.87172,-9.31972 20.87172,-20.87171 l 0.007,-18.26808 c 0,-11.55852 -9.31973,-20.87171 -20.87172,-20.87171 z"
       fill-rule="evenodd"
       id="path69"
       style="stroke-width:1.63751" />
    <path
       d="M 376.15614,705.87866 H 182.88073 c -23.29687,0 -42.30673,-19.00987 -42.30673,-42.30673 v -18.26808 c 0,-23.29686 19.00986,-42.30672 42.30673,-42.30672 h 193.45553 c 23.29687,0 42.30673,19.00986 42.30673,42.30672 v 18.26808 c -0.17911,23.29686 -19.00332,42.30673 -42.49176,42.30673 z M 182.88073,624.42559 c -11.55853,0 -20.87171,9.31973 -20.87171,20.87171 v 18.26808 c 0,11.55853 9.31973,20.87171 20.87171,20.87171 h 193.45553 c 11.55854,0 20.87172,-9.31973 20.87172,-20.87171 V 645.2973 c 0,-11.55853 -9.31974,-20.87171 -20.87172,-20.87171 z"
       fill-rule="evenodd"
       id="path71"
       style="stroke-width:1.63751" />
    <path
       d="M 355.27787,502.15593 H 203.55921 c -5.96152,0 -10.81019,-4.84851 -10.81019,-10.8102 0,-5.96167 4.84851,-10.81018 10.81019,-10.81018 h 151.71866 c 5.96153,0 10.8102,4.84851 10.8102,10.81018 0,5.96169 -4.84851,10.8102 -10.8102,10.8102 z"
       fill-rule="evenodd"
       id="path73"
       style="stroke-width:1.63751" />
    <path
       d="M 355.27787,583.60572 H 203.55921 c -5.96152,0 -10.81019,-4.84851 -10.81019,-10.81019 0,-5.96169 4.84851,-10.8102 10.81019,-10.8102 h 151.71866 c 5.96153,0 10.8102,4.84851 10.8102,10.8102 0,5.96791 -4.84851,10.81019 -10.8102,10.81019 z"
       fill-rule="evenodd"
       id="path75"
       style="stroke-width:1.63751" />
    <path
       d="M 355.27787,665.05551 H 203.55921 c -5.96152,0 -10.81019,-4.84851 -10.81019,-10.81019 0,-5.96169 4.84851,-10.8102 10.81019,-10.8102 h 151.71866 c 5.96153,0 10.8102,4.84851 10.8102,10.8102 0,6.14705 -4.84851,10.81019 -10.8102,10.81019 z"
       fill-rule="evenodd"
       id="path77"
       style="stroke-width:1.63751" />
    <path
       d="m 631.68971,625.54237 c -5.96152,0 -10.81019,-4.84851 -10.81019,-10.81018 v -34.29112 c 0,-5.96153 4.8485,-10.8102 10.81019,-10.8102 5.96168,0 10.81019,4.84851 10.81019,10.8102 v 34.29112 c -0.1855,5.9679 -4.84851,10.81018 -10.81019,10.81018 z"
       fill-rule="evenodd"
       id="path79"
       style="stroke-width:1.63751" />
    <path
       d="m 658.34838,749.68207 c -5.03403,0 -9.31972,-3.35182 -10.43914,-8.57139 l -16.21512,-75.2993 -16.21511,75.2993 c -1.30491,5.77599 -6.8954,9.50526 -12.67156,8.20033 -5.77616,-1.30493 -9.50526,-6.89539 -8.20032,-12.67155 l 26.65376,-124.13151 c 1.11938,-5.03404 5.40509,-8.57139 10.43913,-8.57139 5.03404,0 9.50526,3.54374 10.43913,8.57139 l 26.65377,124.13151 c 1.3049,5.776 -2.42433,11.55854 -8.20033,12.67155 -0.75479,0.37099 -1.50319,0.37099 -2.24519,0.37099 z"
       fill-rule="evenodd"
       id="path81"
       style="stroke-width:1.63751" />
    <path
       d="m 658.34838,749.68207 c -4.84851,0 -9.1342,-3.16629 -10.43914,-8.01479 -1.49039,-5.776 2.05329,-11.55854 7.82927,-13.049 L 804.65539,690.78359 766.07236,469.35937 c -0.1855,-0.55649 -0.1855,-1.3049 -0.1855,-1.86136 v -31.1258 h -268.2079 v 31.1258 c 0,0.55649 0,1.3049 -0.1855,1.86136 l -38.58303,221.42422 148.91688,37.83469 c 5.77599,1.49039 9.1342,7.26645 7.82927,13.049 -1.3049,5.77599 -7.26646,9.13419 -13.04901,7.82926 L 444.18495,709.05166 c -5.40509,-1.3049 -8.94867,-6.71003 -8.0148,-12.30049 l 39.88158,-230.1849 v -41.00164 c 0,-5.96152 4.8485,-10.81019 10.81019,-10.81019 h 289.64292 c 5.96153,0 10.8102,4.84851 10.8102,10.81019 v 41.00164 l 40.25984,230.1849 c 0.93388,5.59062 -2.42434,10.81019 -8.0148,12.30049 l -158.42263,40.44488 c -1.11938,0 -1.86774,0.1855 -2.79522,0.1855 z"
       fill-rule="evenodd"
       id="path83"
       style="stroke-width:1.63751" />
    <path
       d="M 776.51116,478.11727 H 486.86825 c -5.96153,0 -10.8102,-4.84851 -10.8102,-10.8102 0,-5.96167 4.84851,-10.81018 10.8102,-10.81018 h 289.64291 c 5.96152,0 10.81019,4.84851 10.81019,10.81018 -0.18549,6.14707 -5.02765,10.8102 -10.81019,10.8102 z"
       fill-rule="evenodd"
       id="path85"
       style="stroke-width:1.63751" />
    <path
       d="m 786.18886,540.93219 c -19.57317,0 -40.07481,-7.6439 -56.1044,-20.87171 -8.20033,-6.71004 -14.72483,-14.5393 -19.38159,-23.11019 -5.21956,-9.50527 -7.82926,-19.38159 -7.82926,-29.63567 0,-5.96153 4.8485,-10.8102 10.81019,-10.8102 5.96169,0 10.81019,4.84851 10.81019,10.8102 0,13.04899 6.8954,25.90542 19.38159,36.1595 12.11495,10.06169 27.95885,15.84423 42.49831,15.84423 5.96153,0 10.8102,4.84851 10.8102,10.81019 -0.371,5.96153 -5.02765,10.80381 -10.99556,10.80381 z"
       fill-rule="evenodd"
       id="path87"
       style="stroke-width:1.63751" />
    <path
       d="m 631.68971,591.07277 c -5.96152,0 -10.81019,-4.84851 -10.81019,-10.81019 V 467.31199 c 0,-5.96152 4.8485,-10.81019 10.81019,-10.81019 5.96168,0 10.81019,4.84851 10.81019,10.81019 v 99.34451 c 6.52449,-3.7291 10.99556,-10.8102 10.99556,-18.82483 v -80.51968 c 0,-5.96152 4.8485,-10.81019 10.81019,-10.81019 5.96168,0 10.81018,4.84851 10.81018,10.81019 v 80.51968 c -0.37099,24.03866 -19.7582,43.24012 -43.42678,43.24012 z"
       fill-rule="evenodd"
       id="path89"
       style="stroke-width:1.63751" />
  </g>
</svg>
